<?xml version="1.0" standalone="no"?>
<!DOCTYPE svg PUBLIC "-//W3C//DTD SVG 20010904//EN"
 "http://www.w3.org/TR/2001/REC-SVG-20010904/DTD/svg10.dtd">
<svg version="1.0" xmlns="http://www.w3.org/2000/svg"
 width="448.000000pt" height="448.000000pt" viewBox="0 0 448.000000 448.000000"
 preserveAspectRatio="xMidYMid meet">

<g transform="translate(0.000000,448.000000) scale(0.100000,-0.100000)"
fill="#000000" stroke="none">
<path d="M2114 4465 c-33 -7 -92 -29 -130 -48 -127 -64 -1447 -837 -1501 -879
-102 -78 -190 -222 -219 -357 -21 -100 -20 -1775 1 -1876 25 -118 86 -228 175
-315 72 -70 123 -102 816 -507 438 -255 765 -440 804 -454 93 -32 256 -33 356
-2 52 17 264 136 799 448 401 234 753 444 782 467 102 78 190 222 219 357 21
100 20 1775 -1 1876 -24 113 -86 228 -169 311 -65 65 -128 103 -796 496 -399
234 -740 433 -758 442 -98 50 -258 67 -378 41z m33 -1120 c64 -19 136 -82 170
-149 39 -75 39 -179 0 -258 -32 -64 -92 -121 -153 -142 l-39 -13 -3 -84 -3
-85 48 -12 c53 -14 126 -58 162 -96 l24 -25 61 44 61 44 0 78 c1 123 49 209
155 271 39 24 56 27 130 27 76 0 91 -3 139 -30 125 -69 182 -223 131 -357 -28
-74 -70 -122 -142 -157 -100 -50 -201 -42 -298 25 l-52 35 -54 -37 c-74 -51
-75 -53 -63 -100 11 -37 7 -147 -6 -189 -5 -17 6 -29 61 -67 l67 -47 41 35
c70 60 172 79 263 48 246 -82 264 -428 28 -540 -72 -34 -172 -33 -243 2 -108
53 -168 159 -160 281 l4 64 -67 49 -67 48 -33 -34 c-36 -37 -140 -94 -171 -94
-16 0 -18 -9 -18 -90 l0 -89 50 -22 c65 -28 133 -103 156 -171 35 -105 -1
-249 -79 -314 -63 -53 -107 -69 -192 -69 -67 0 -88 5 -131 27 -99 52 -157 147
-157 258 0 74 27 146 71 194 35 37 111 86 134 86 17 0 18 8 16 91 l-3 91 -53
18 c-192 68 -296 280 -231 472 40 119 124 203 237 238 l57 18 0 83 0 82 -41
14 c-91 30 -170 135 -181 238 -22 210 171 370 374 310z"/>
<path d="M1994 3200 c-32 -13 -71 -65 -78 -104 -9 -45 21 -117 58 -141 64 -42
157 -23 196 40 41 66 17 166 -49 200 -32 16 -93 19 -127 5z"/>
<path d="M2688 2785 c-90 -50 -88 -189 4 -245 113 -68 254 63 193 179 -26 52
-71 81 -123 81 -26 -1 -59 -7 -74 -15z"/>
<path d="M1975 2423 c-97 -51 -139 -156 -100 -251 59 -141 245 -164 334 -42
72 99 39 235 -70 290 -46 24 -122 25 -164 3z"/>
<path d="M2692 1950 c-66 -41 -89 -116 -55 -187 22 -47 66 -73 125 -73 52 0
97 29 123 81 61 116 -80 247 -193 179z"/>
<path d="M1994 1540 c-32 -13 -71 -65 -78 -104 -9 -45 21 -117 58 -141 64 -42
157 -23 196 40 41 66 17 166 -49 200 -32 16 -93 19 -127 5z"/>
</g>
</svg>
